<svg xmlns="http://www.w3.org/2000/svg" width="40" height="40" viewBox="0 0 2056 1823"><path d="M839.672 515.284c87.276 9.276 174.597 18.136 261.771 28.238 14.608 1.686 28.822 8.225 42.761 13.686 4.332 1.686 7.147 7.253 10.675 11.04-4.748 3.304-9.102 8.534-14.31 9.591-33.199 6.742-66.78 11.669-99.855 18.934-32.985 7.242-65.359 17.271-98.322 24.653-22.889 5.124-46.194 9.169-69.533 11.282-29.159 2.641-58.813.787-87.731 4.725-20.31 2.764-44.172 6.849-58.633 19.367-28.502 24.67-63.207 27.17-95.889 36.733-32.806 9.602-36.828 16.569-26.721 48.374 10.012 31.508 16.574 64.1 25.283 96.041 5.787 21.215 11.883 42.419 19.31 63.1 9.641 26.839-2.028 60.746-28.811 68.752-11.158 3.337-30.586-.562-38.059-8.68-43.262-47.076-84.377-96.147-125.537-145.117-13.698-16.293-24.648-34.913-38.503-51.06-3.416-3.978-15.939-5.815-19.76-2.837-23.462 18.316-46.93 37.019-68.061 57.976-43.155 42.745-85.871 86.045-126.633 131.043-17.687 19.529-29.839 44.02-45.205 65.735-2.646 3.742-9.984 8.107-13.158 6.911-22.693-8.557-45.762-16.911-66.724-28.822-7.427-4.219-11.535-17.76-13.389-27.744-9.652-51.886 22.642-89.804 46.071-130.116 23.738-40.846 49.442-80.568 74.848-120.413 7.433-11.658 2.916-20.687-7.568-21.204-18.147-.888-36.519 3.231-54.819 4.545-8.355.601-19.277 2.809-24.844-1.309-35.362-26.316-71.971-51.425-78.202-101.547-3.264-26.266-14.45-51.464-19.187-77.663-4.607-25.451 8.214-47.043 30.03-56.97 23.328-10.619 47.998-31.081 76.23-5.399 43.75 39.795 99.254 35.716 152.775 36.806 18.541.376 23.299-14.209 19.209-28.26-8.119-27.884-18.754-55.06-29.064-82.27-16.968-44.778-34.688-89.27-51.728-134.021-9.237-24.26-19.26-48.374-26.198-73.314-11.355-40.812-22.884-81.849-29.777-123.543-5.652-34.149 5.652-48.032 40.065-50.992 44.278-3.809 88.798-2.332 127.256 25.704 26.861 19.58 46.104 42.7 41.014 79.315-.815 5.832 4.495 15.17 9.804 18.782 38.649 26.406 56.077 67.1 73.983 107.468 9.242 20.844 16.602 42.554 26.316 63.162 9.253 19.636 20.923 19.535 35.576 3.141Q621.201 159.485 746.755 20.565c21.558-23.783 47.194-24.53 71.056-3.219 35.519 31.682 56.375 73.258 64.611 118.508 3.399 18.732-8.135 42.7-18.664 60.937-25.946 44.947-55.622 87.737-83.096 131.824-29.581 47.458-58.909 95.091-87.282 143.269-14.074 23.912-2.332 40.84 24.839 41.576 40.368 1.067 80.686 4.124 121.02 6.332z"/></svg>