<?xml version="1.0" standalone="no"?>
<!DOCTYPE svg PUBLIC "-//W3C//DTD SVG 20010904//EN"
 "http://www.w3.org/TR/2001/REC-SVG-20010904/DTD/svg10.dtd">
<svg version="1.0" xmlns="http://www.w3.org/2000/svg"
 width="435.000000pt" height="435.000000pt" viewBox="0 0 435.000000 435.000000"
 preserveAspectRatio="xMidYMid meet">
<metadata>
Created by potrace 1.11, written by Peter Selinger 2001-2013
</metadata>
<g transform="translate(0.000000,435.000000) scale(0.100000,-0.100000)"
fill="#000000" stroke="none">
<path d="M767 3994 c-1 -1 -26 -4 -55 -7 -145 -15 -166 -100 -96 -395 47 -197
91 -323 321 -907 139 -351 148 -378 137 -418 -6 -25 -8 -26 -63 -22 -31 3
-119 7 -196 9 -174 6 -222 19 -305 86 -107 88 -177 95 -299 34 -94 -48 -141
-108 -141 -181 0 -38 86 -360 120 -448 18 -47 55 -90 128 -149 37 -30 80 -66
96 -80 16 -14 32 -26 36 -26 4 0 34 14 67 30 80 40 186 43 230 8 10 -8 9 -17
-4 -42 -22 -44 -117 -200 -246 -406 -121 -192 -160 -269 -181 -360 -16 -66
-13 -215 4 -235 6 -7 48 -27 93 -45 45 -18 102 -43 127 -55 33 -17 51 -20 62
-14 10 5 45 51 79 102 149 222 354 443 614 662 33 27 74 62 90 76 95 84 140
118 146 112 3 -5 68 -91 144 -193 190 -254 286 -371 380 -465 106 -107 142
-135 170 -135 24 0 75 45 137 121 l38 46 -26 89 c-13 49 -27 98 -29 108 -7 29
-133 477 -145 512 -20 60 -13 82 28 100 69 30 142 53 185 59 92 13 170 48 226
103 7 7 35 24 62 38 50 25 78 29 274 39 312 15 365 21 470 55 141 45 507 131
705 166 14 3 34 8 45 11 11 4 26 8 33 9 20 4 27 13 16 23 -9 9 -383 78 -470
86 -27 3 -63 7 -79 10 -17 2 -64 7 -105 10 -41 3 -91 8 -110 10 -39 5 -179 14
-470 30 -52 3 -114 7 -137 10 -23 2 -91 7 -150 10 -179 10 -218 17 -227 42
-10 26 258 486 561 963 166 262 168 268 102 432 -81 202 -123 267 -209 329
-133 95 -161 79 -453 -251 -205 -232 -232 -263 -277 -315 -25 -28 -75 -84
-111 -125 -37 -41 -126 -142 -200 -225 -173 -196 -157 -181 -168 -153 -18 45
-153 354 -179 408 -59 124 -120 202 -199 255 -24 15 -44 30 -44 34 -1 3 -3 38
-4 76 -4 131 -65 219 -194 285 -76 38 -165 59 -270 63 -45 2 -82 2 -84 1z"/>
</g>
</svg>
