<?xml version="1.0" standalone="no"?>
<!DOCTYPE svg PUBLIC "-//W3C//DTD SVG 20010904//EN"
 "http://www.w3.org/TR/2001/REC-SVG-20010904/DTD/svg10.dtd">
<svg version="1.0" xmlns="http://www.w3.org/2000/svg"
 width="599.000000pt" height="599.000000pt" viewBox="0 0 599.000000 599.000000"
 preserveAspectRatio="xMidYMid meet">
<metadata>
Created by potrace 1.11, written by Peter Selinger 2001-2013
</metadata>
<g transform="translate(0.000000,599.000000) scale(0.100000,-0.100000)"
fill="#000000" stroke="none">
<path d="M2897 4860 c-59 -38 -107 -72 -107 -75 0 -3 37 -5 83 -5 l83 0 23 70
c12 39 24 70 26 70 2 0 14 -31 25 -70 l21 -70 86 0 c50 0 83 4 78 9 -9 8 -176
119 -201 134 -6 3 -58 -25 -117 -63z"/>
<path d="M2700 4514 c-91 -36 -167 -67 -169 -70 -2 -2 68 -4 156 -4 l159 0 18
58 c10 31 21 63 23 70 8 20 -15 14 -187 -54z"/>
<path d="M3120 4576 c0 -2 9 -34 20 -70 l21 -66 161 0 c89 0 159 2 157 4 -6 6
-342 136 -351 136 -4 0 -8 -2 -8 -4z"/>
<path d="M2510 4170 l-245 -69 236 0 235 -1 18 58 c10 31 21 63 23 70 8 18 -2
16 -267 -58z"/>
<path d="M3230 4232 c0 -4 9 -36 21 -70 l21 -62 231 0 c126 0 228 2 226 4 -4
4 -482 136 -493 136 -3 0 -6 -4 -6 -8z"/>
<path d="M2335 3831 c-170 -37 -317 -70 -325 -73 -8 -4 126 -6 299 -5 l314 2
17 50 c32 93 32 95 18 94 -7 0 -152 -31 -323 -68z"/>
<path d="M3341 3888 c0 -7 10 -40 22 -73 l22 -60 314 -3 c173 -1 312 0 309 3
-4 4 -649 145 -664 145 -2 0 -4 -6 -3 -12z"/>
<path d="M2155 3489 c-214 -37 -399 -70 -410 -72 -11 -2 158 -5 376 -6 l396
-1 16 58 c9 31 19 65 22 75 4 9 3 17 -1 16 -5 0 -184 -32 -399 -70z"/>
<path d="M3450 3553 c0 -3 10 -37 22 -75 l22 -68 390 1 c215 0 387 2 381 4 -5
3 -181 34 -390 70 -209 36 -390 68 -402 70 -13 3 -23 2 -23 -2z"/>
<path d="M1985 3149 c-253 -38 -469 -70 -480 -72 -11 -2 187 -5 441 -6 l461
-1 21 72 c11 40 20 73 19 74 -1 0 -209 -30 -462 -67z"/>
<path d="M3560 3212 c0 -3 10 -36 22 -74 l22 -68 460 1 c254 1 454 3 446 5 -8
2 -217 33 -465 69 -247 36 -458 67 -467 69 -10 2 -18 1 -18 -2z"/>
<path d="M1747 2800 c-291 -38 -531 -71 -535 -74 -3 -3 239 -6 537 -6 l541 0
9 23 c5 13 16 47 25 75 l15 52 -32 -1 c-18 -1 -270 -32 -560 -69z"/>
<path d="M3676 2848 c4 -13 15 -45 24 -73 l17 -50 543 -3 c299 -1 541 0 538 3
-5 6 -1074 145 -1111 145 -14 0 -17 -5 -11 -22z"/>
<path d="M1585 2460 c-324 -37 -601 -70 -615 -72 -14 -3 253 -6 593 -7 l617
-1 9 23 c5 13 16 47 25 75 l15 52 -27 -1 c-15 -1 -292 -32 -617 -69z"/>
<path d="M2850 2514 c-272 -58 -470 -299 -470 -572 0 -155 56 -288 170 -403
123 -124 267 -182 455 -182 184 0 329 57 450 177 201 199 231 496 74 731 -114
170 -306 266 -529 264 -47 0 -114 -7 -150 -15z m302 -43 c169 -58 320 -231
357 -409 46 -224 -46 -455 -231 -582 -88 -59 -145 -80 -238 -87 -148 -11 -271
38 -385 152 -112 112 -165 241 -165 400 0 150 56 288 158 389 91 90 179 138
292 160 45 8 155 -3 212 -23z"/>
<path d="M3786 2508 c4 -13 15 -45 24 -73 l17 -50 619 -2 c340 -1 615 0 609 3
-8 3 -1250 144 -1271 144 -3 0 -2 -10 2 -22z"/>
<path d="M1420 2120 c-366 -38 -681 -71 -700 -73 -19 -2 277 -3 659 -3 l694 1
17 50 c33 98 33 95 13 94 -10 -1 -317 -32 -683 -69z"/>
<path d="M3896 2167 c4 -12 15 -44 24 -72 l17 -50 694 -1 694 -2 -670 68
c-368 38 -692 71 -718 74 -46 5 -48 4 -41 -17z"/>
<path d="M1170 1770 l-725 -68 759 2 759 1 23 68 23 67 -57 -1 c-31 -1 -383
-32 -782 -69z"/>
<path d="M4024 1773 l23 -68 759 -1 759 -2 -740 69 c-407 37 -759 68 -782 68
l-42 1 23 -67z"/>
<path d="M1000 1430 c-443 -37 -816 -70 -830 -73 -14 -2 358 -5 827 -6 l851
-1 25 75 26 75 -47 -1 c-26 -1 -409 -32 -852 -69z"/>
<path d="M4137 1425 l25 -75 851 1 c469 0 848 2 842 5 -10 4 -1687 144 -1725
144 -18 0 -17 -3 7 -75z"/>
</g>
</svg>
